<svg xmlns="http://www.w3.org/2000/svg" viewBox="0 0 512 512">
  <defs>
    <linearGradient id="bg" x1="0%" y1="0%" x2="100%" y2="100%">
      <stop offset="0%" style="stop-color:#E07B54"/>
      <stop offset="100%" style="stop-color:#D4603C"/>
    </linearGradient>
    <linearGradient id="sparkle" x1="0%" y1="0%" x2="100%" y2="100%">
      <stop offset="0%" style="stop-color:#FFFFFF"/>
      <stop offset="100%" style="stop-color:#FFE4D9"/>
    </linearGradient>
  </defs>
  <!-- Fond arrondi -->
  <rect width="512" height="512" rx="112" fill="url(#bg)"/>
  <!-- Sparkle principal (étoile 4 branches) -->
  <path d="M256 80 C256 80 280 200 296 216 C312 232 432 256 432 256 C432 256 312 280 296 296 C280 312 256 432 256 432 C256 432 232 312 216 296 C200 280 80 256 80 256 C80 256 200 232 216 216 C232 200 256 80 256 80Z" fill="url(#sparkle)" opacity="0.95"/>
  <!-- Petite étoile en haut à droite -->
  <path d="M380 100 C380 100 390 140 396 146 C402 152 442 162 442 162 C442 162 402 172 396 178 C390 184 380 224 380 224 C380 224 370 184 364 178 C358 172 318 162 318 162 C318 162 358 152 364 146 C370 140 380 100 380 100Z" fill="white" opacity="0.7"/>
  <!-- Mini étoile en bas à gauche -->
  <path d="M140 340 C140 340 146 360 150 364 C154 368 174 374 174 374 C174 374 154 380 150 384 C146 388 140 408 140 408 C140 408 134 388 130 384 C126 380 106 374 106 374 C106 374 126 368 130 364 C134 360 140 340 140 340Z" fill="white" opacity="0.5"/>
</svg>
