<svg width="1200" height="630" viewBox="0 0 1200 630" fill="none" xmlns="http://www.w3.org/2000/svg">
  <!-- Background gradient -->
  <rect width="1200" height="630" fill="url(#gradient)"/>
  
  <!-- Pattern overlay -->
  <rect width="1200" height="630" fill="url(#pattern)" opacity="0.05"/>
  
  <!-- Logo circle -->
  <circle cx="600" cy="250" r="80" fill="white" fill-opacity="0.15"/>
  <circle cx="600" cy="250" r="60" fill="white"/>
  
  <!-- House icon (logo v3) -->
  <path d="M600 210 L640 240 L637 240 L637 270 L620 270 L620 250 L580 250 L580 270 L563 270 L563 240 L560 240 Z" fill="#E07B54" stroke="none"/>
  <!-- Sparkle on roof -->
  <path d="M630 200 C630 200 632 208 634 210 C636 212 644 214 644 214 C644 214 636 216 634 218 C632 220 630 228 630 228 C630 228 628 220 626 218 C624 216 616 214 616 214 C616 214 624 212 626 210 C628 208 630 200 630 200Z" fill="#E07B54" opacity="0.85"/>
  <!-- Mini sparkle -->
  <path d="M650 220 C650 220 651 225 652 226 C653 227 658 228 658 228 C658 228 653 229 652 230 C651 231 650 236 650 236 C650 236 649 231 648 230 C647 229 642 228 642 228 C642 228 647 227 648 226 C649 225 650 220 650 220Z" fill="#E07B54" opacity="0.55"/>
  
  <!-- Title -->
  <text x="600" y="380" font-family="system-ui, -apple-system, sans-serif" font-size="56" font-weight="700" fill="white" text-anchor="middle">InstaDeco AI</text>
  
  <!-- Subtitle -->
  <text x="600" y="440" font-family="system-ui, -apple-system, sans-serif" font-size="28" fill="white" fill-opacity="0.9" text-anchor="middle">Décoration d'intérieur par Intelligence Artificielle</text>
  
  <!-- CTA -->
  <rect x="450" y="480" width="300" height="50" rx="25" fill="white"/>
  <text x="600" y="513" font-family="system-ui, -apple-system, sans-serif" font-size="20" font-weight="600" fill="#E07B54" text-anchor="middle">Transformez votre intérieur</text>
  
  <!-- Decorative circles -->
  <circle cx="100" cy="100" r="60" fill="white" fill-opacity="0.1"/>
  <circle cx="1100" cy="530" r="80" fill="white" fill-opacity="0.08"/>
  <circle cx="1050" cy="80" r="40" fill="white" fill-opacity="0.06"/>
  
  <defs>
    <linearGradient id="gradient" x1="0" y1="0" x2="1200" y2="630">
      <stop offset="0%" stop-color="#E07B54"/>
      <stop offset="50%" stop-color="#D4603C"/>
      <stop offset="100%" stop-color="#C4503C"/>
    </linearGradient>
    <pattern id="pattern" patternUnits="userSpaceOnUse" width="40" height="40">
      <circle cx="20" cy="20" r="2" fill="white"/>
    </pattern>
  </defs>
</svg>
